<?xml version="1.0" encoding="UTF-8" standalone="no"?>
<svg
   xmlns:dc="http://purl.org/dc/elements/1.1/"
   xmlns:cc="http://creativecommons.org/ns#"
   xmlns:rdf="http://www.w3.org/1999/02/22-rdf-syntax-ns#"
   xmlns:svg="http://www.w3.org/2000/svg"
   xmlns="http://www.w3.org/2000/svg"
   id="svg873"
   xml:space="preserve"
   style="enable-background:new 0 0 100 100;"
   viewBox="0 0 100 125"
   y="0px"
   x="0px"
   version="1.1"><metadata
     id="metadata879"><rdf:RDF><cc:Work
         rdf:about=""><dc:format>image/svg+xml</dc:format><dc:type
           rdf:resource="http://purl.org/dc/dcmitype/StillImage" /><dc:title></dc:title></cc:Work></rdf:RDF></metadata><defs
     id="defs877" /><g
     transform="translate(2,-2)"
     id="g956"><circle
       style="opacity:0.98000004;fill:#f46868;fill-opacity:1;stroke:none;stroke-width:2.49648118;stroke-miterlimit:4;stroke-dasharray:none;stroke-opacity:1"
       id="path887"
       cx="47.5"
       cy="77.5"
       r="47.5" /><path
       d="M 66.962364,45.897727 47.468017,65.392069 27.973676,45.897727 c -1.57849,-1.57849 -4.025148,-1.57849 -5.603638,0 l -6.156107,6.156107 c -1.57849,1.57849 -1.57849,4.025148 0,5.603638 L 35.708273,77.151813 16.213931,96.646155 c -1.57849,1.578489 -1.57849,4.025145 0,5.603635 l 6.156107,6.15611 c 1.57849,1.57849 4.025148,1.57849 5.603638,0 L 47.468017,88.832633 66.962364,108.32698 c 1.578486,1.57848 4.025146,1.57848 5.603633,0 l 6.156105,-6.15611 c 1.578487,-1.57849 1.578487,-4.025151 0,-5.60364 L 59.148841,77.151813 78.643182,57.657472 c 1.578487,-1.57849 1.578487,-4.025148 0,-5.603638 l -6.156115,-6.156107 c -1.499557,-1.499565 -3.946217,-1.499565 -5.524703,0 z"
       id="path867"
       style="fill:#ffffff;fill-opacity:1;stroke-width:0.78924459" /></g></svg>