<?xml version="1.0" encoding="UTF-8" standalone="no"?>
<svg
   xmlns:dc="http://purl.org/dc/elements/1.1/"
   xmlns:cc="http://creativecommons.org/ns#"
   xmlns:rdf="http://www.w3.org/1999/02/22-rdf-syntax-ns#"
   xmlns:svg="http://www.w3.org/2000/svg"
   xmlns="http://www.w3.org/2000/svg"
   xmlns:sodipodi="http://sodipodi.sourceforge.net/DTD/sodipodi-0.dtd"
   xmlns:inkscape="http://www.inkscape.org/namespaces/inkscape"
   version="1.1"
   x="0px"
   y="0px"
   viewBox="0 0 48 60"
   enable-background="new 0 0 48 48"
   xml:space="preserve"
   id="svg873"
   sodipodi:docname="noun_down arrow_145079.svg.2019_11_26_15_24_59.0.svg"
   inkscape:version="0.92.4 (5da689c313, 2019-01-14)"><metadata
     id="metadata879"><rdf:RDF><cc:Work
         rdf:about=""><dc:format>image/svg+xml</dc:format><dc:type
           rdf:resource="http://purl.org/dc/dcmitype/StillImage" /></cc:Work></rdf:RDF></metadata><defs
     id="defs877" /><sodipodi:namedview
     pagecolor="#ffffff"
     bordercolor="#666666"
     borderopacity="1"
     objecttolerance="10"
     gridtolerance="10"
     guidetolerance="10"
     inkscape:pageopacity="0"
     inkscape:pageshadow="2"
     inkscape:window-width="1280"
     inkscape:window-height="701"
     id="namedview875"
     showgrid="false"
     inkscape:zoom="7.8"
     inkscape:cx="18.871795"
     inkscape:cy="14.615385"
     inkscape:window-x="0"
     inkscape:window-y="1"
     inkscape:window-maximized="1"
     inkscape:current-layer="svg873" /><path
     style="opacity:1;fill:#f46868;fill-opacity:1;stroke:#000000;stroke-width:0;stroke-miterlimit:4;stroke-dasharray:none;stroke-opacity:1"
     d="m 17.179487,26.742788 a 15,15 0 0 0 -14.9999998,15 15,15 0 0 0 14.9999998,15 15,15 0 0 0 15,-15 15,15 0 0 0 -15,-15 z m -5.666015,7.263672 c 5.51578,0.81441 7.69908,5.294688 8.439453,7.589844 0.07404,0.29615 0.334709,0.480468 0.630859,0.480468 h 2.035156 c 0.407202,0 0.665654,0.332758 0.517578,0.628907 l -5.330078,8.478515 c -0.222112,0.370186 -0.777888,0.370186 -1,0 l -5.292968,-8.478515 c -0.185094,-0.29615 0.07326,-0.628907 0.480468,-0.628907 h 1.740235 c 0.370187,0 0.666015,-0.29583 0.666015,-0.666015 -0.07404,-2.665343 -2.221017,-5.663151 -3.146484,-6.884766 -0.185093,-0.222112 6.35e-4,-0.519531 0.259766,-0.519531 z"
     id="path883"
     inkscape:connector-curvature="0" /><ellipse
     style="opacity:0.894;fill:#f9050a;fill-opacity:0;stroke:none;stroke-width:3.77952756;stroke-miterlimit:4;stroke-dasharray:none;stroke-opacity:1"
     id="path881"
     cx="21.812366"
     cy="24.434969"
     rx="13.36887"
     ry="13.432836" /></svg>