<?xml version="1.0" encoding="UTF-8" standalone="no"?>
<svg
   xmlns:dc="http://purl.org/dc/elements/1.1/"
   xmlns:cc="http://creativecommons.org/ns#"
   xmlns:rdf="http://www.w3.org/1999/02/22-rdf-syntax-ns#"
   xmlns:svg="http://www.w3.org/2000/svg"
   xmlns="http://www.w3.org/2000/svg"
   xmlns:sodipodi="http://sodipodi.sourceforge.net/DTD/sodipodi-0.dtd"
   xmlns:inkscape="http://www.inkscape.org/namespaces/inkscape"
   version="1.1"
   x="0px"
   y="0px"
   viewBox="0 0 80 100"
   style="enable-background:new 0 0 80 80;"
   xml:space="preserve"
   id="svg1460"
   sodipodi:docname="noun_high five_2958238.svg"><metadata
     id="metadata1466"><rdf:RDF><cc:Work
         rdf:about=""><dc:format>image/svg+xml</dc:format><dc:type
           rdf:resource="http://purl.org/dc/dcmitype/StillImage" /></cc:Work></rdf:RDF></metadata><defs
     id="defs1464" /><sodipodi:namedview
     pagecolor="#ffffff"
     bordercolor="#666666"
     borderopacity="1"
     objecttolerance="10"
     gridtolerance="10"
     guidetolerance="10"
     inkscape:pageopacity="0"
     inkscape:pageshadow="2"
     inkscape:window-width="640"
     inkscape:window-height="480"
     id="namedview1462"
     showgrid="false" /><circle
     style="opacity:0.98000004;fill:#f468f0;fill-opacity:1;stroke:none;stroke-width:0.75853932;stroke-miterlimit:4;stroke-dasharray:none;stroke-opacity:1"
     id="path1480"
     cx="40"
     cy="60"
     r="40"
     transform="scale(1.0134049,1)" /><g
     id="g1494"><g
       style="fill:#f46868;fill-opacity:1"
       transform="matrix(0.78473197,0,0,0.82210552,6.339432,26.888299)"
       id="g1438"><path
         style="fill:#f46868;fill-opacity:1"
         inkscape:connector-curvature="0"
         id="path1436"
         d="m 62.3,17.1 c -0.2,0 -0.5,-0.1 -0.7,-0.3 -0.4,-0.4 -0.4,-1 -0.1,-1.4 l 8.2,-9.2 c 0.4,-0.4 1,-0.4 1.4,-0.1 0.4,0.4 0.4,1 0.1,1.4 L 63,16.7 c -0.2,0.2 -0.4,0.4 -0.7,0.4 z" /></g><g
       style="fill:#f46868;fill-opacity:1"
       transform="matrix(0.78473197,0,0,0.82210552,6.339432,26.888299)"
       id="g1442"><path
         style="fill:#f46868;fill-opacity:1"
         inkscape:connector-curvature="0"
         id="path1440"
         d="m 58.8,13.3 c -0.1,0 -0.2,0 -0.4,-0.1 -0.5,-0.2 -0.8,-0.8 -0.6,-1.3 l 3,-7.7 c 0.2,-0.5 0.8,-0.8 1.3,-0.6 0.5,0.2 0.8,0.8 0.6,1.3 l -3,7.7 c -0.2,0.4 -0.5,0.7 -0.9,0.7 z" /></g><g
       style="fill:#f46868;fill-opacity:1"
       transform="matrix(0.67569608,0,0,0.74196415,7.964067,26.827721)"
       id="g1446"><path
         style="fill:#f46868;fill-opacity:1"
         inkscape:connector-curvature="0"
         id="path1444"
         d="m 13.9,24.2 c -0.3,0 -0.5,-0.1 -0.7,-0.3 l -7.8,-8 c -0.4,-0.4 -0.4,-1 0,-1.4 0.4,-0.4 1,-0.4 1.4,0 l 7.8,8 c 0.4,0.4 0.4,1 0,1.4 -0.2,0.2 -0.4,0.3 -0.7,0.3 z" /></g><g
       style="fill:#f46868;fill-opacity:1"
       transform="matrix(0.78473197,0,0,0.82210552,5.961642,24.321615)"
       id="g1450"><path
         style="fill:#f46868;fill-opacity:1"
         inkscape:connector-curvature="0"
         id="path1448"
         d="m 11.7,28.1 c -0.1,0 -0.3,0 -0.4,-0.1 L 4.6,24.8 C 4.1,24.6 3.9,24 4.1,23.5 4.3,23 4.9,22.8 5.4,23 l 6.7,3.2 c 0.5,0.2 0.7,0.8 0.5,1.3 -0.2,0.4 -0.5,0.6 -0.9,0.6 z" /></g><g
       style="fill:#f46868;fill-opacity:1"
       transform="matrix(0.78473197,0,0,0.82210552,6.339432,30.226472)"
       id="g1454"><path
         style="fill:#f46868;fill-opacity:1"
         inkscape:connector-curvature="0"
         id="path1452"
         d="m 74.6,26.4 c -1.2,-1.1 -3,-1.6 -4.7,-1 -1.7,0.5 -2.8,1.9 -3.1,3.8 l -2.2,9.5 c -0.1,0.2 -0.3,0.4 -0.5,0.4 -0.2,0 -0.5,-0.1 -0.6,-0.3 l -1.8,-4.2 0.6,-1 C 63.7,31.4 63.1,28.6 60.8,27 60,26.5 59.1,26.1 58.1,26.1 L 56.4,22 c 0.1,-0.9 -0.2,-1.9 -0.7,-2.7 -0.3,-0.4 -0.6,-0.8 -1,-1.2 L 50.4,7 C 49.4,4.6 47.6,3.5 45.7,4.3 44.1,4.9 42.8,6.8 43.5,8.8 l 3.4,10 c -0.1,0.1 -0.2,0.3 -0.3,0.5 L 44.8,22.4 44,20.8 c 0.5,-2.7 -1.3,-5 -3.4,-5.9 l -4,-7 C 35.8,6.4 34.6,6 33.7,6 c -1.3,0 -2.6,0.7 -3.3,1.8 -0.3,0.6 -0.8,1.8 0.1,3.3 l 3.5,6.4 c -0.2,0.3 -0.3,0.6 -0.5,1 L 32.2,21.7 29.4,18 c -1.7,-2.2 -3.7,-2.1 -4.9,-1.2 -1.2,0.8 -2,2.6 -1,4.1 l 5.6,8.4 -2.1,5 -3.7,-3.1 C 21.6,29.8 20,30.1 19.1,31 c -0.8,0.8 -1.2,2.4 0.1,3.8 0.2,0.2 2.7,2.3 5.5,5 L 23,43.9 22,39.6 c -0.5,-2.5 -2.1,-4.4 -4.3,-5.2 -2.2,-0.7 -4.7,-0.2 -6.4,1.4 -1.8,1.7 -2.4,4.3 -1.7,7.1 0.3,1.1 0.6,2.4 0.9,3.6 1.8,7.4 3.9,15.7 7.6,21.6 3,4.7 8.9,8.1 13.9,8.1 0.6,0 1.2,0 1.7,-0.1 4.5,-0.8 9.9,-2.9 16.2,-11.5 0.9,0.3 1.9,0.5 2.8,0.7 0.5,0.1 1,0.1 1.5,0.1 4.5,0 10.1,-3.2 12.9,-7.6 3.8,-6 5.9,-14.7 7.8,-22.3 L 75,35 c 0.3,-1.2 0.6,-2.3 0.8,-3.3 0.5,-2.1 0.1,-4.1 -1.2,-5.3 z M 64,44.9 c -1,0.9 -11,9.7 -13.7,13.7 -1.2,1.9 -2.3,3.6 -3.4,5 v 0 c 0,0 0,0 0,0 -0.3,0.4 -0.7,0.8 -1,1.2 0,0 0,0.1 -0.1,0.1 -1.7,2 -3.2,3.6 -4.7,4.7 0,0 0,0 0,0 -0.3,0.2 -0.5,0.4 -0.8,0.6 0,0 -0.1,0.1 -0.1,0.1 -0.3,0.2 -0.5,0.4 -0.8,0.5 0,0 -0.1,0 -0.1,0.1 -0.8,0.5 -1.6,0.9 -2.3,1.2 0,0 -0.1,0 -0.1,0.1 -0.2,0.1 -0.4,0.1 -0.6,0.2 -0.1,0 -0.2,0.1 -0.3,0.1 -0.2,0.1 -0.3,0.1 -0.5,0.2 -0.1,0 -0.3,0.1 -0.4,0.1 -0.1,0 -0.3,0.1 -0.4,0.1 -0.2,0 -0.3,0.1 -0.5,0.1 -0.1,0 -0.2,0.1 -0.3,0.1 -0.3,0.1 -0.6,0.1 -0.8,0.2 C 29,74 23.3,71 20.6,66.7 17.1,61.2 15.1,53.1 13.4,46 13.1,44.8 12.8,43.5 12.5,42.4 12,40.6 12.3,39.1 13.3,38.2 c 0.6,-0.6 1.5,-0.9 2.4,-0.9 0.4,0 0.7,0.1 1.1,0.2 1.2,0.4 2,1.4 2.3,2.9 l 2,8.9 c 0.1,0.6 0.7,1.1 1.3,1.2 0.7,0 1.3,-0.3 1.5,-0.9 L 30.7,33.2 31,32.4 v 0 l 3.3,-7.9 v 0 l 0.7,-1.7 1.3,-3.2 c 0.7,-1.8 1.9,-2.5 3.2,-2 1.1,0.4 2,1.7 1.5,3 l -6.5,18.9 -0.3,0.8 v 0 l -0.3,0.9 c -0.3,0.7 0.1,1.5 0.8,1.9 0.7,0.3 1.5,0.1 1.9,-0.6 L 41.5,34 v 0 l 0.6,-1 5.8,-10 0.3,-0.5 v 0 l 1.1,-1.8 c 0.4,-0.8 1.1,-1.2 1.8,-1.2 0.9,0 1.8,0.5 2.2,1.2 0.4,0.7 0.3,1.4 -0.1,2.2 l -3,5.5 v 0 l -0.6,1 -8.3,15.2 c -0.4,0.7 -0.2,1.6 0.5,2 0.7,0.4 1.5,0.3 2,-0.4 l 12,-15.8 c 1,-1.3 2.2,-1.7 3.3,-0.9 0.8,0.5 1.3,1.6 0.7,2.5 L 47.2,51 c -0.4,0.6 -0.3,1.5 0.2,1.9 0.5,0.4 1.4,0.5 2,0 l 12,-10 c 1.2,-1 2.1,-0.8 2.7,-0.2 0.5,0.5 0.7,1.3 -0.1,2.2 z" /></g><g
       id="g1474"
       transform="matrix(0.91661694,0,0,0.53623969,1.7295037,34.715122)"
       style="fill:#f46868;fill-opacity:1"><path
         d="m 62.3,17.1 c -0.2,0 -0.5,-0.1 -0.7,-0.3 -0.4,-0.4 -0.4,-1 -0.1,-1.4 l 8.2,-9.2 c 0.4,-0.4 1,-0.4 1.4,-0.1 0.4,0.4 0.4,1 0.1,1.4 L 63,16.7 c -0.2,0.2 -0.4,0.4 -0.7,0.4 z"
         id="path1472"
         inkscape:connector-curvature="0"
         style="fill:#f46868;fill-opacity:1" /></g></g></svg>